# xmcd CD database file
#
# Track frame offsets:
#	150
#	21782
#	46610
#	61682
#	85780
#	109050
#	125265
#	144125
#	161150
#	183475
#	206587
#	231665
#
# Disc length: 3364 seconds
#
# Revision: 0
# Processed by: cddbd v1.5PL3 Copyright (c) Steve Scherf et al.
# Submitted via: CDex 1.51
#
DISCID=980d220c
DTITLE=Hurricane Sam - Piano Madness
DYEAR=1989
DGENRE=Blues
TTITLE0=New Coat of Paint
TTITLE1=T-Bone Shuffle
TTITLE2=Honky-Tonk Heroes
TTITLE3=Someone Else's Blues
TTITLE4=You've been on My Mind
TTITLE5=Gospel
TTITLE6=Lookin' just as Hard as They Can
TTITLE7=Take it Where You get It
TTITLE8=Crazy Mama
TTITLE9=After You've Gone
TTITLE10=Do You Remember?
TTITLE11=Layla
EXTD=YEAR: 1989
EXTT0=
EXTT1=
EXTT2=
EXTT3=
EXTT4=
EXTT5=
EXTT6=
EXTT7=
EXTT8=
EXTT9=
EXTT10=
EXTT11=
PLAYORDER=
